<mxfile host="Electron" agent="Mozilla/5.0 (Windows NT 10.0; Win64; x64) AppleWebKit/537.36 (KHTML, like Gecko) draw.io/25.0.2 Chrome/128.0.6613.186 Electron/32.2.5 Safari/537.36" version="25.0.2">
  <diagram name="Page-1" id="TQZQVLWXv_kDHEn8FY4M">
    <mxGraphModel dx="1090" dy="695" grid="1" gridSize="10" guides="1" tooltips="1" connect="1" arrows="1" fold="1" page="1" pageScale="1" pageWidth="827" pageHeight="1169" math="0" shadow="0">
      <root>
        <mxCell id="0" />
        <mxCell id="1" parent="0" />
        <mxCell id="8DkGkdUiqdSwwxa66KiM-1" value="deposite_payment" style="rounded=0;whiteSpace=wrap;html=1;" parent="1" vertex="1">
          <mxGeometry x="130" y="200" width="120" height="60" as="geometry" />
        </mxCell>
        <mxCell id="8DkGkdUiqdSwwxa66KiM-2" value="uid" style="ellipse;whiteSpace=wrap;html=1;" parent="1" vertex="1">
          <mxGeometry x="20" y="110" width="120" height="50" as="geometry" />
        </mxCell>
        <mxCell id="8DkGkdUiqdSwwxa66KiM-3" value="payment_no" style="ellipse;whiteSpace=wrap;html=1;fontStyle=4" parent="1" vertex="1">
          <mxGeometry x="120" y="50" width="120" height="50" as="geometry" />
        </mxCell>
        <mxCell id="8DkGkdUiqdSwwxa66KiM-4" value="amt" style="ellipse;whiteSpace=wrap;html=1;" parent="1" vertex="1">
          <mxGeometry x="190" y="110" width="120" height="50" as="geometry" />
        </mxCell>
        <mxCell id="8DkGkdUiqdSwwxa66KiM-5" value="utr_no" style="ellipse;whiteSpace=wrap;html=1;" parent="1" vertex="1">
          <mxGeometry x="334" y="160" width="120" height="50" as="geometry" />
        </mxCell>
        <mxCell id="8DkGkdUiqdSwwxa66KiM-6" value="" style="endArrow=none;html=1;rounded=0;entryX=0.5;entryY=1;entryDx=0;entryDy=0;exitX=0;exitY=0;exitDx=0;exitDy=0;" parent="1" source="8DkGkdUiqdSwwxa66KiM-1" target="8DkGkdUiqdSwwxa66KiM-2" edge="1">
          <mxGeometry width="50" height="50" relative="1" as="geometry">
            <mxPoint x="40" y="360" as="sourcePoint" />
            <mxPoint x="90" y="310" as="targetPoint" />
          </mxGeometry>
        </mxCell>
        <mxCell id="8DkGkdUiqdSwwxa66KiM-7" value="" style="endArrow=none;html=1;rounded=0;entryX=0.5;entryY=1;entryDx=0;entryDy=0;" parent="1" target="8DkGkdUiqdSwwxa66KiM-3" edge="1">
          <mxGeometry width="50" height="50" relative="1" as="geometry">
            <mxPoint x="130" y="200" as="sourcePoint" />
            <mxPoint x="90" y="170" as="targetPoint" />
          </mxGeometry>
        </mxCell>
        <mxCell id="8DkGkdUiqdSwwxa66KiM-8" value="" style="endArrow=none;html=1;rounded=0;entryX=0;entryY=1;entryDx=0;entryDy=0;exitX=1;exitY=0;exitDx=0;exitDy=0;" parent="1" source="8DkGkdUiqdSwwxa66KiM-1" target="8DkGkdUiqdSwwxa66KiM-4" edge="1">
          <mxGeometry width="50" height="50" relative="1" as="geometry">
            <mxPoint x="140" y="210" as="sourcePoint" />
            <mxPoint x="190" y="110" as="targetPoint" />
          </mxGeometry>
        </mxCell>
        <mxCell id="8DkGkdUiqdSwwxa66KiM-9" value="" style="endArrow=none;html=1;rounded=0;entryX=0;entryY=0.5;entryDx=0;entryDy=0;exitX=1;exitY=0;exitDx=0;exitDy=0;" parent="1" source="8DkGkdUiqdSwwxa66KiM-1" target="8DkGkdUiqdSwwxa66KiM-5" edge="1">
          <mxGeometry width="50" height="50" relative="1" as="geometry">
            <mxPoint x="260" y="210" as="sourcePoint" />
            <mxPoint x="218" y="163" as="targetPoint" />
          </mxGeometry>
        </mxCell>
        <mxCell id="8DkGkdUiqdSwwxa66KiM-10" value="auction_status_track" style="rounded=0;whiteSpace=wrap;html=1;" parent="1" vertex="1">
          <mxGeometry x="490" y="480" width="170" height="60" as="geometry" />
        </mxCell>
        <mxCell id="8DkGkdUiqdSwwxa66KiM-11" value="allowed_user_uid" style="ellipse;whiteSpace=wrap;html=1;" parent="1" vertex="1">
          <mxGeometry x="400" y="390" width="120" height="50" as="geometry" />
        </mxCell>
        <mxCell id="8DkGkdUiqdSwwxa66KiM-12" value="user_bid_left" style="ellipse;whiteSpace=wrap;html=1;" parent="1" vertex="1">
          <mxGeometry x="540" y="390" width="120" height="50" as="geometry" />
        </mxCell>
        <mxCell id="8DkGkdUiqdSwwxa66KiM-13" value="price_offered" style="ellipse;whiteSpace=wrap;html=1;" parent="1" vertex="1">
          <mxGeometry x="480" y="330" width="120" height="50" as="geometry" />
        </mxCell>
        <mxCell id="8DkGkdUiqdSwwxa66KiM-14" value="highest_bidder" style="ellipse;whiteSpace=wrap;html=1;" parent="1" vertex="1">
          <mxGeometry x="660" y="330" width="120" height="50" as="geometry" />
        </mxCell>
        <mxCell id="8DkGkdUiqdSwwxa66KiM-15" value="auction_end" style="ellipse;whiteSpace=wrap;html=1;" parent="1" vertex="1">
          <mxGeometry x="690" y="390" width="120" height="50" as="geometry" />
        </mxCell>
        <mxCell id="8DkGkdUiqdSwwxa66KiM-16" value="vehicleid" style="ellipse;whiteSpace=wrap;html=1;" parent="1" vertex="1">
          <mxGeometry x="690" y="480" width="120" height="50" as="geometry" />
        </mxCell>
        <mxCell id="8DkGkdUiqdSwwxa66KiM-17" value="" style="endArrow=none;html=1;rounded=0;exitX=0.522;exitY=1.072;exitDx=0;exitDy=0;exitPerimeter=0;" parent="1" source="8DkGkdUiqdSwwxa66KiM-11" edge="1">
          <mxGeometry width="50" height="50" relative="1" as="geometry">
            <mxPoint x="440" y="530" as="sourcePoint" />
            <mxPoint x="490" y="480" as="targetPoint" />
          </mxGeometry>
        </mxCell>
        <mxCell id="8DkGkdUiqdSwwxa66KiM-18" value="" style="endArrow=none;html=1;rounded=0;exitX=0.419;exitY=1.038;exitDx=0;exitDy=0;exitPerimeter=0;entryX=0.25;entryY=0;entryDx=0;entryDy=0;" parent="1" source="8DkGkdUiqdSwwxa66KiM-13" target="8DkGkdUiqdSwwxa66KiM-10" edge="1">
          <mxGeometry width="50" height="50" relative="1" as="geometry">
            <mxPoint x="473" y="454" as="sourcePoint" />
            <mxPoint x="500" y="490" as="targetPoint" />
          </mxGeometry>
        </mxCell>
        <mxCell id="8DkGkdUiqdSwwxa66KiM-19" value="" style="endArrow=none;html=1;rounded=0;exitX=0.267;exitY=0.998;exitDx=0;exitDy=0;exitPerimeter=0;entryX=0.365;entryY=-0.035;entryDx=0;entryDy=0;entryPerimeter=0;" parent="1" source="8DkGkdUiqdSwwxa66KiM-12" target="8DkGkdUiqdSwwxa66KiM-10" edge="1">
          <mxGeometry width="50" height="50" relative="1" as="geometry">
            <mxPoint x="540" y="392" as="sourcePoint" />
            <mxPoint x="541" y="487" as="targetPoint" />
          </mxGeometry>
        </mxCell>
        <mxCell id="8DkGkdUiqdSwwxa66KiM-20" value="" style="endArrow=none;html=1;rounded=0;exitX=0.181;exitY=0.878;exitDx=0;exitDy=0;exitPerimeter=0;entryX=0.959;entryY=-0.007;entryDx=0;entryDy=0;entryPerimeter=0;" parent="1" source="8DkGkdUiqdSwwxa66KiM-14" target="8DkGkdUiqdSwwxa66KiM-10" edge="1">
          <mxGeometry width="50" height="50" relative="1" as="geometry">
            <mxPoint x="540" y="392" as="sourcePoint" />
            <mxPoint x="543" y="490" as="targetPoint" />
          </mxGeometry>
        </mxCell>
        <mxCell id="8DkGkdUiqdSwwxa66KiM-21" value="" style="endArrow=none;html=1;rounded=0;exitX=0.144;exitY=0.932;exitDx=0;exitDy=0;exitPerimeter=0;entryX=1.004;entryY=0.065;entryDx=0;entryDy=0;entryPerimeter=0;" parent="1" source="8DkGkdUiqdSwwxa66KiM-15" target="8DkGkdUiqdSwwxa66KiM-10" edge="1">
          <mxGeometry width="50" height="50" relative="1" as="geometry">
            <mxPoint x="692" y="384" as="sourcePoint" />
            <mxPoint x="664" y="487" as="targetPoint" />
          </mxGeometry>
        </mxCell>
        <mxCell id="8DkGkdUiqdSwwxa66KiM-22" value="" style="endArrow=none;html=1;rounded=0;exitX=0.083;exitY=0.2;exitDx=0;exitDy=0;exitPerimeter=0;entryX=1.012;entryY=0.199;entryDx=0;entryDy=0;entryPerimeter=0;" parent="1" source="8DkGkdUiqdSwwxa66KiM-16" target="8DkGkdUiqdSwwxa66KiM-10" edge="1">
          <mxGeometry width="50" height="50" relative="1" as="geometry">
            <mxPoint x="717" y="447" as="sourcePoint" />
            <mxPoint x="671" y="494" as="targetPoint" />
          </mxGeometry>
        </mxCell>
        <mxCell id="8DkGkdUiqdSwwxa66KiM-23" value="current_auction" style="rounded=0;whiteSpace=wrap;html=1;" parent="1" vertex="1">
          <mxGeometry x="140" y="600" width="170" height="60" as="geometry" />
        </mxCell>
        <mxCell id="8DkGkdUiqdSwwxa66KiM-24" value="vehicleid" style="ellipse;whiteSpace=wrap;html=1;fontStyle=4" parent="1" vertex="1">
          <mxGeometry x="140" y="520" width="120" height="50" as="geometry" />
        </mxCell>
        <mxCell id="8DkGkdUiqdSwwxa66KiM-25" value="eventid" style="ellipse;whiteSpace=wrap;html=1;" parent="1" vertex="1">
          <mxGeometry x="310" y="490" width="120" height="50" as="geometry" />
        </mxCell>
        <mxCell id="8DkGkdUiqdSwwxa66KiM-26" value="aid" style="ellipse;whiteSpace=wrap;html=1;" parent="1" vertex="1">
          <mxGeometry x="190" y="450" width="120" height="50" as="geometry" />
        </mxCell>
        <mxCell id="8DkGkdUiqdSwwxa66KiM-27" value="base_price" style="ellipse;whiteSpace=wrap;html=1;" parent="1" vertex="1">
          <mxGeometry x="330" y="580" width="120" height="50" as="geometry" />
        </mxCell>
        <mxCell id="8DkGkdUiqdSwwxa66KiM-28" value="auction_start" style="ellipse;whiteSpace=wrap;html=1;fontStyle=0" parent="1" vertex="1">
          <mxGeometry x="20" y="460" width="120" height="50" as="geometry" />
        </mxCell>
        <mxCell id="8DkGkdUiqdSwwxa66KiM-29" value="auction_end" style="ellipse;whiteSpace=wrap;html=1;fontStyle=0" parent="1" vertex="1">
          <mxGeometry x="10" y="535" width="120" height="50" as="geometry" />
        </mxCell>
        <mxCell id="8DkGkdUiqdSwwxa66KiM-30" value="" style="endArrow=none;html=1;rounded=0;entryX=0;entryY=0;entryDx=0;entryDy=0;exitX=0.922;exitY=0.807;exitDx=0;exitDy=0;exitPerimeter=0;" parent="1" source="8DkGkdUiqdSwwxa66KiM-29" target="8DkGkdUiqdSwwxa66KiM-23" edge="1">
          <mxGeometry width="50" height="50" relative="1" as="geometry">
            <mxPoint x="310" y="420" as="sourcePoint" />
            <mxPoint x="360" y="370" as="targetPoint" />
          </mxGeometry>
        </mxCell>
        <mxCell id="8DkGkdUiqdSwwxa66KiM-31" value="" style="endArrow=none;html=1;rounded=0;entryX=0.164;entryY=-0.059;entryDx=0;entryDy=0;exitX=0.299;exitY=1.049;exitDx=0;exitDy=0;exitPerimeter=0;entryPerimeter=0;" parent="1" source="8DkGkdUiqdSwwxa66KiM-24" target="8DkGkdUiqdSwwxa66KiM-23" edge="1">
          <mxGeometry width="50" height="50" relative="1" as="geometry">
            <mxPoint x="131" y="585" as="sourcePoint" />
            <mxPoint x="150" y="610" as="targetPoint" />
          </mxGeometry>
        </mxCell>
        <mxCell id="8DkGkdUiqdSwwxa66KiM-32" value="" style="endArrow=none;html=1;rounded=0;entryX=0.083;entryY=-0.071;entryDx=0;entryDy=0;exitX=0.802;exitY=0.984;exitDx=0;exitDy=0;exitPerimeter=0;entryPerimeter=0;" parent="1" source="8DkGkdUiqdSwwxa66KiM-28" target="8DkGkdUiqdSwwxa66KiM-23" edge="1">
          <mxGeometry width="50" height="50" relative="1" as="geometry">
            <mxPoint x="186" y="582" as="sourcePoint" />
            <mxPoint x="178" y="606" as="targetPoint" />
          </mxGeometry>
        </mxCell>
        <mxCell id="8DkGkdUiqdSwwxa66KiM-33" value="" style="endArrow=none;html=1;rounded=0;entryX=0.75;entryY=0;entryDx=0;entryDy=0;exitX=0.749;exitY=1.009;exitDx=0;exitDy=0;exitPerimeter=0;" parent="1" source="8DkGkdUiqdSwwxa66KiM-26" target="8DkGkdUiqdSwwxa66KiM-23" edge="1">
          <mxGeometry width="50" height="50" relative="1" as="geometry">
            <mxPoint x="126" y="519" as="sourcePoint" />
            <mxPoint x="164" y="606" as="targetPoint" />
          </mxGeometry>
        </mxCell>
        <mxCell id="8DkGkdUiqdSwwxa66KiM-34" value="" style="endArrow=none;html=1;rounded=0;entryX=0.941;entryY=0;entryDx=0;entryDy=0;exitX=0.04;exitY=0.689;exitDx=0;exitDy=0;exitPerimeter=0;entryPerimeter=0;" parent="1" source="8DkGkdUiqdSwwxa66KiM-25" target="8DkGkdUiqdSwwxa66KiM-23" edge="1">
          <mxGeometry width="50" height="50" relative="1" as="geometry">
            <mxPoint x="290" y="510" as="sourcePoint" />
            <mxPoint x="278" y="610" as="targetPoint" />
          </mxGeometry>
        </mxCell>
        <mxCell id="8DkGkdUiqdSwwxa66KiM-35" value="" style="endArrow=none;html=1;rounded=0;exitX=0.08;exitY=0.3;exitDx=0;exitDy=0;exitPerimeter=0;entryX=1;entryY=0.25;entryDx=0;entryDy=0;" parent="1" source="8DkGkdUiqdSwwxa66KiM-27" target="8DkGkdUiqdSwwxa66KiM-23" edge="1">
          <mxGeometry width="50" height="50" relative="1" as="geometry">
            <mxPoint x="325" y="534" as="sourcePoint" />
            <mxPoint x="310" y="610" as="targetPoint" />
          </mxGeometry>
        </mxCell>
      </root>
    </mxGraphModel>
  </diagram>
</mxfile>
